<?xml version="1.0" standalone="no"?>
<!DOCTYPE svg PUBLIC "-//W3C//DTD SVG 20010904//EN"
 "http://www.w3.org/TR/2001/REC-SVG-20010904/DTD/svg10.dtd">
<svg version="1.0" xmlns="http://www.w3.org/2000/svg"
 width="64.000000pt" height="64.000000pt" viewBox="0 0 64.000000 64.000000"
 preserveAspectRatio="xMidYMid meet">

<g transform="translate(0.000000,64.000000) scale(0.100000,-0.100000)"
fill="#000000" stroke="none">
<path d="M250 611 c-83 -43 -103 -154 -42 -230 l31 -38 -39 -12 c-46 -14 -54
-25 -71 -110 -13 -62 -13 -64 10 -82 l23 -19 -29 0 c-53 0 -82 -59 -47 -94 22
-23 447 -22 469 1 35 35 4 93 -49 93 l-28 0 23 19 c23 18 23 20 10 82 -17 85
-25 96 -71 110 l-39 12 29 29 c76 75 53 195 -47 247 -33 17 -94 13 -133 -8z
m123 -5 c65 -28 101 -100 83 -170 -7 -29 -64 -89 -77 -80 -14 9 -10 34 6 34
46 0 41 101 -8 162 -39 49 -65 49 -104 1 -48 -60 -53 -163 -8 -163 17 0 20
-16 5 -25 -15 -10 -49 13 -65 45 -25 48 -20 113 12 151 27 32 74 58 106 59 10
0 32 -6 50 -14z m5 -150 c6 -64 -47 -98 -90 -59 -17 15 -26 82 -13 95 3 3 27
5 53 3 47 -1 47 -2 50 -39z m-118 -21 c0 -8 -2 -15 -4 -15 -2 0 -6 7 -10 15
-3 8 -1 15 4 15 6 0 10 -7 10 -15z m150 8 c0 -5 -5 -15 -10 -23 -8 -12 -10
-11 -10 8 0 12 5 22 10 22 6 0 10 -3 10 -7z m-47 -85 c10 -29 -46 -98 -80 -98
-17 0 -18 81 -1 98 16 16 75 15 81 0z m16 -55 c-18 -49 -47 -88 -78 -106 -17
-10 -31 -15 -31 -10 0 4 14 16 30 25 17 9 30 22 30 28 0 7 -9 5 -22 -4 -25
-18 -38 -20 -38 -7 0 5 13 14 29 19 16 6 42 26 57 46 16 20 30 36 31 36 1 0
-2 -12 -8 -27z m26 -39 c-9 -14 -14 -29 -10 -32 10 -10 45 37 45 59 0 10 5 19
10 19 14 0 2 -48 -19 -79 -9 -13 -21 -33 -28 -44 -11 -20 -43 -44 -43 -32 0 4
5 15 11 27 17 31 2 34 -29 6 -15 -14 -38 -29 -52 -33 -23 -6 -22 -5 5 13 44
29 82 72 101 117 13 29 19 35 22 22 2 -10 -4 -29 -13 -43z m-217 -18 l-4 -64
33 -16 c36 -17 45 -46 14 -46 -28 0 -88 27 -94 44 -5 12 18 120 30 139 2 4 9
7 15 7 7 0 9 -23 6 -64z m308 -32 c5 -35 3 -49 -9 -61 -13 -14 -17 -14 -37 0
-17 12 -18 15 -5 20 8 4 15 11 15 18 0 6 -7 8 -16 5 -11 -4 -10 1 5 20 12 15
21 33 21 41 0 32 19 -1 26 -43z m-131 -84 c3 -5 -3 -10 -15 -10 -12 0 -18 5
-15 10 3 6 10 10 15 10 5 0 12 -4 15 -10z m60 0 c3 -5 -1 -10 -9 -10 -8 0 -18
5 -21 10 -3 6 1 10 9 10 8 0 18 -4 21 -10z m-122 -7 c-7 -2 -19 -2 -25 0 -7 3
-2 5 12 5 14 0 19 -2 13 -5z"/>
</g>
</svg>
